<svg width="517" height="93" viewBox="0 0 517 93" fill="none" xmlns="http://www.w3.org/2000/svg">
<path d="M0.44 92L40.28 0.199995H41.24L81.08 92H60.92L35.48 27.44L48.08 18.8L17.6 92H0.44ZM27.68 60.08H54.2L60.32 74.72H22.28L27.68 60.08ZM106.625 59.36C106.625 62.16 107.465 64.84 109.145 67.4C110.825 69.96 113.025 72.04 115.745 73.64C118.545 75.24 121.585 76.04 124.865 76.04C128.465 76.04 131.665 75.24 134.465 73.64C137.265 72.04 139.465 69.96 141.065 67.4C142.745 64.84 143.585 62.16 143.585 59.36V3.67999H160.745V59.72C160.745 66.2 159.145 71.96 155.945 77C152.745 81.96 148.425 85.88 142.985 88.76C137.545 91.56 131.505 92.96 124.865 92.96C118.305 92.96 112.305 91.56 106.865 88.76C101.505 85.88 97.225 81.96 94.025 77C90.825 71.96 89.225 66.2 89.225 59.72V3.67999H106.625V59.36ZM208.488 3.67999C214.008 3.67999 218.928 4.39999 223.248 5.83999C227.568 7.2 231.168 9.2 234.048 11.84C237.008 14.4 239.248 17.52 240.768 21.2C242.288 24.8 243.048 28.88 243.048 33.44C243.048 37.04 242.488 40.64 241.368 44.24C240.328 47.84 238.568 51.12 236.088 54.08C233.688 57.04 230.488 59.44 226.488 61.28C222.488 63.04 217.528 63.92 211.608 63.92H199.128V92H181.728V3.67999H208.488ZM211.488 47.12C214.128 47.12 216.328 46.68 218.088 45.8C219.848 44.92 221.208 43.8 222.168 42.44C223.208 41.08 223.928 39.68 224.328 38.24C224.808 36.72 225.048 35.32 225.048 34.04C225.048 33.08 224.888 31.88 224.568 30.44C224.328 28.92 223.768 27.4 222.888 25.88C222.008 24.36 220.648 23.08 218.808 22.04C217.048 21 214.648 20.48 211.608 20.48H199.128V47.12H211.488ZM227.808 57.92L249.648 92H229.368L207.048 58.4L227.808 57.92ZM255.547 47.96C255.547 41.88 256.707 36.12 259.027 30.68C261.347 25.24 264.547 20.44 268.627 16.28C272.787 12.04 277.587 8.72 283.027 6.31999C288.467 3.92 294.307 2.72 300.547 2.72C306.707 2.72 312.507 3.92 317.947 6.31999C323.387 8.72 328.187 12.04 332.347 16.28C336.587 20.44 339.867 25.24 342.187 30.68C344.587 36.12 345.787 41.88 345.787 47.96C345.787 54.2 344.587 60.04 342.187 65.48C339.867 70.92 336.587 75.72 332.347 79.88C328.187 83.96 323.387 87.16 317.947 89.48C312.507 91.8 306.707 92.96 300.547 92.96C294.307 92.96 288.467 91.8 283.027 89.48C277.587 87.16 272.787 83.96 268.627 79.88C264.547 75.72 261.347 70.92 259.027 65.48C256.707 60.04 255.547 54.2 255.547 47.96ZM273.547 47.96C273.547 51.88 274.227 55.56 275.587 59C277.027 62.36 278.987 65.36 281.467 68C284.027 70.56 286.947 72.56 290.227 74C293.587 75.44 297.227 76.16 301.147 76.16C304.907 76.16 308.387 75.44 311.587 74C314.867 72.56 317.707 70.56 320.107 68C322.507 65.36 324.387 62.36 325.747 59C327.107 55.56 327.787 51.88 327.787 47.96C327.787 43.96 327.067 40.24 325.627 36.8C324.267 33.36 322.347 30.36 319.867 27.8C317.467 25.16 314.627 23.12 311.347 21.68C308.067 20.24 304.507 19.52 300.667 19.52C296.827 19.52 293.267 20.24 289.987 21.68C286.707 23.12 283.827 25.16 281.347 27.8C278.867 30.36 276.947 33.36 275.587 36.8C274.227 40.24 273.547 43.96 273.547 47.96ZM389.894 3.67999C395.414 3.67999 400.334 4.39999 404.654 5.83999C408.974 7.2 412.574 9.2 415.454 11.84C418.414 14.4 420.654 17.52 422.174 21.2C423.694 24.8 424.454 28.88 424.454 33.44C424.454 37.04 423.894 40.64 422.774 44.24C421.734 47.84 419.974 51.12 417.494 54.08C415.094 57.04 411.894 59.44 407.894 61.28C403.894 63.04 398.934 63.92 393.014 63.92H380.534V92H363.134V3.67999H389.894ZM392.894 47.12C395.534 47.12 397.734 46.68 399.494 45.8C401.254 44.92 402.614 43.8 403.574 42.44C404.614 41.08 405.334 39.68 405.734 38.24C406.214 36.72 406.454 35.32 406.454 34.04C406.454 33.08 406.294 31.88 405.974 30.44C405.734 28.92 405.174 27.4 404.294 25.88C403.414 24.36 402.054 23.08 400.214 22.04C398.454 21 396.054 20.48 393.014 20.48H380.534V47.12H392.894ZM409.214 57.92L431.054 92H410.774L388.454 58.4L409.214 57.92ZM435.44 92L475.28 0.199995H476.24L516.08 92H495.92L470.48 27.44L483.08 18.8L452.6 92H435.44ZM462.68 60.08H489.2L495.32 74.72H457.28L462.68 60.08Z" fill="#F27405"/>
</svg>
