<svg width="139" height="185" viewBox="0 0 139 185" fill="none" xmlns="http://www.w3.org/2000/svg">
<path d="M2.4 183L68.8 30H70.4L136.8 183H103.2L60.8 75.4L81.8 61L31 183H2.4ZM47.8 129.8H92L102.2 154.2H38.8L47.8 129.8Z" fill="#BF1304"/>
<path d="M20.8 183L70.6 68.25H71.8L121.6 183H96.4L64.6 102.3L80.35 91.5L42.25 183H20.8ZM54.85 143.1H88L95.65 161.4H48.1L54.85 143.1Z" fill="#F27405"/>
<path d="M36 183L70.0728 107H71.0498L105 183H90.4675L53.708 166.356L78.0109 125.969L51.7542 183H36ZM57.2498 168.069H84.2392L90.4675 183H51.7542L57.2498 168.069Z" fill="#FBD4B1"/>
<path d="M55 183L70.3081 133H70.747L86 183H79.4709L62.9558 172.05L73.8744 145.48L62.078 183H55ZM64.547 173.177H76.6727L79.4709 183H62.078L64.547 173.177Z" fill="#FBD4B1"/>
<line x1="58.3748" y1="1.39997" x2="137.375" y2="182.4" stroke="black" stroke-width="3"/>
<line x1="82.3748" y1="2.60003" x2="3.37475" y2="183.6" stroke="black" stroke-width="3"/>
<line x1="58.3748" y1="1.39997" x2="137.375" y2="182.4" stroke="black" stroke-width="3"/>
</svg>
